<svg width="99" height="99" viewBox="0 0 99 99" fill="none" xmlns="http://www.w3.org/2000/svg">
<g filter="url(#filter0_d_29_99)">
<g clip-path="url(#clip0_29_99)">
<rect x="4" width="91" height="91" rx="45.5" fill="url(#paint0_linear_29_99)"/>
<g filter="url(#filter1_d_29_99)">
<path d="M40.4427 55.491C40.4427 55.491 23.346 45.0124 22.1026 43.7649C20.8593 42.5174 19.4915 41.4571 19.0563 37.1534C18.7722 34.3435 19.5537 30.8537 21.6053 28.9825C21.6053 28.9825 22.7243 27.4856 26.8275 25.8015C30.9307 24.1174 33.9771 23.8055 33.9771 23.8055V33.3486C33.9771 33.3486 29.6348 34.0442 28.2575 35.4693C27.5466 36.2048 27.5114 36.592 27.5114 36.592L45.5406 47.8192C45.5406 47.8192 48.8425 50.1319 49.0843 56.1148C49.2708 60.7304 45.8678 63.718 45.8678 63.718C45.8678 63.718 45.7826 63.9183 44.0485 64.9094C40.8114 66.7594 33.9771 68.1528 33.9771 68.1528V58.5473C33.9771 58.5473 37.7437 58.0379 39.1993 57.1751C40.2344 56.5616 40.4427 55.491 40.4427 55.491Z" fill="#0164A1"/>
<path d="M34.0472 23.8055V33.3339C34.0472 33.3339 29.6622 34.0285 28.2713 35.4513C27.5535 36.1857 27.518 36.5723 27.518 36.5723C27.518 36.5723 25.0695 35.0777 23.8139 33.6453C22.5583 32.2129 21.9304 30.7904 21.5537 29.0466C21.5537 29.0466 22.6838 27.4799 26.8273 25.7984C30.9709 24.1169 34.0472 23.8055 34.0472 23.8055Z" fill="#008BE1"/>
<path d="M33.9795 68.1526V58.4767C33.9795 58.4767 37.9249 58.0804 39.3088 57.0839C40.3606 56.3265 40.4278 55.453 40.4278 55.453C40.4278 55.453 43.2555 57.0046 44.6963 58.719C46.1372 60.4334 46.1372 63.449 46.1372 63.449C46.1372 63.449 45.9425 63.883 44.1952 64.8823C40.9333 66.7476 33.9795 68.1526 33.9795 68.1526Z" fill="#008BE1"/>
<ellipse cx="42.0005" cy="28.8338" rx="5.97808" ry="5.84584" fill="#0164A1"/>
<path d="M32.1679 63.0058C32.1679 66.2343 29.5516 68.8516 26.3242 68.8516C23.0968 68.8516 20.4805 66.2343 20.4805 63.0058C20.4805 59.7772 23.0968 57.1599 26.3242 57.1599C29.5516 57.1599 32.1679 59.7772 32.1679 63.0058Z" fill="#0164A1"/>
<path d="M65.1867 67.9188L64.5977 58.8851C64.5977 58.8851 68.685 58.3323 70.2645 57.396C71.3877 56.7302 71.6138 55.5685 71.6138 55.5685C71.6138 55.5685 65.5221 53.6438 65.1859 52.0624C64.8496 50.481 66.1773 41.1611 66.1773 41.1611L75.0925 47.1073C75.0925 47.1073 80.7288 49.753 80.9912 56.2454C81.1936 61.2541 77.5008 64.4962 77.5008 64.4962C77.5008 64.4962 77.4084 64.7135 75.5267 65.7889C72.014 67.7965 65.1867 67.9188 65.1867 67.9188Z" fill="#008BE1"/>
<path d="M63.2188 68.0961V58.337C63.2188 58.337 68.8835 58.3781 70.3852 57.2967C71.5265 56.4749 71.5994 55.527 71.5994 55.527C71.5994 55.527 75.2836 56.817 76.8471 58.6774C78.4107 60.5377 77.7949 64.2039 77.7949 64.2039C77.7949 64.2039 77.5837 64.6748 75.6876 65.7591C72.148 67.7833 63.2188 68.0961 63.2188 68.0961Z" fill="#0164A1"/>
<path d="M65.7581 22.639L64.6494 30.9555C64.6494 30.9555 68.6889 32.317 70.2684 33.2533C71.3917 33.9191 71.8571 34.8366 71.8571 34.8366C71.8571 34.8366 66.1816 39.1792 65.1906 41.1612C64.1995 43.1433 65.1906 52.0625 65.1906 52.0625C65.1906 52.0625 65.5744 50.6875 67.1719 49.0894C68.7067 47.5541 75.5225 43.4802 76.0549 43.1629C76.0794 43.1483 76.0978 43.1386 76.1231 43.1254C76.5515 42.9024 80.7461 40.5643 80.9951 34.4039C81.1975 29.3952 77.5047 26.1531 77.5047 26.1531C77.5047 26.1531 77.4123 25.9358 75.5306 24.8604C72.0179 22.8528 65.7581 22.639 65.7581 22.639Z" fill="#0164A1"/>
<path d="M75.6923 24.8897C72.1528 22.8655 65.759 22.6389 65.759 22.6389L59.9394 24.8897L57.4424 33.1734C57.4424 33.1734 65.3207 31.0559 67.9767 32.2421C71.3033 33.7278 71.8578 34.8367 71.8578 34.8367C71.8578 34.8367 74.525 33.1114 76.0885 31.2511C77.652 29.3907 77.4022 27.629 77.4022 27.629C77.4022 27.629 77.5885 25.9741 75.6923 24.8897Z" fill="#008BE1"/>
<path d="M52.3045 58.137C52.3045 58.137 52.3044 41.4898 52.3046 37.0542C52.3048 32.6187 52.7458 26.5379 57.2557 24.314C61.28 22.3296 65.761 22.6389 65.761 22.6389C65.761 22.6389 61.3262 26.5199 61.3262 34.8364L61.3261 45.3708L61.3261 68.3034L56.7517 68.3034L52.3046 68.3034L52.3045 64.7764L52.3045 58.137Z" fill="#0164A1"/>
</g>
</g>
</g>
<defs>
<filter id="filter0_d_29_99" x="0" y="0" width="99" height="99" filterUnits="userSpaceOnUse" color-interpolation-filters="sRGB">
<feFlood flood-opacity="0" result="BackgroundImageFix"/>
<feColorMatrix in="SourceAlpha" type="matrix" values="0 0 0 0 0 0 0 0 0 0 0 0 0 0 0 0 0 0 127 0" result="hardAlpha"/>
<feOffset dy="4"/>
<feGaussianBlur stdDeviation="2"/>
<feComposite in2="hardAlpha" operator="out"/>
<feColorMatrix type="matrix" values="0 0 0 0 0 0 0 0 0 0 0 0 0 0 0 0 0 0 0.25 0"/>
<feBlend mode="normal" in2="BackgroundImageFix" result="effect1_dropShadow_29_99"/>
<feBlend mode="normal" in="SourceGraphic" in2="effect1_dropShadow_29_99" result="shape"/>
</filter>
<filter id="filter1_d_29_99" x="15" y="22.6215" width="70.0029" height="54.2301" filterUnits="userSpaceOnUse" color-interpolation-filters="sRGB">
<feFlood flood-opacity="0" result="BackgroundImageFix"/>
<feColorMatrix in="SourceAlpha" type="matrix" values="0 0 0 0 0 0 0 0 0 0 0 0 0 0 0 0 0 0 127 0" result="hardAlpha"/>
<feOffset dy="4"/>
<feGaussianBlur stdDeviation="2"/>
<feComposite in2="hardAlpha" operator="out"/>
<feColorMatrix type="matrix" values="0 0 0 0 0 0 0 0 0 0 0 0 0 0 0 0 0 0 0.25 0"/>
<feBlend mode="normal" in2="BackgroundImageFix" result="effect1_dropShadow_29_99"/>
<feBlend mode="normal" in="SourceGraphic" in2="effect1_dropShadow_29_99" result="shape"/>
</filter>
<linearGradient id="paint0_linear_29_99" x1="49.5" y1="0" x2="49.5" y2="91" gradientUnits="userSpaceOnUse">
<stop stop-color="#FFD468"/>
<stop offset="0.261" stop-color="#FFB703"/>
</linearGradient>
<clipPath id="clip0_29_99">
<rect x="4" width="91" height="91" rx="45.5" fill="white"/>
</clipPath>
</defs>
</svg>
